<svg xmlns="http://www.w3.org/2000/svg" xmlns:xlink="http://www.w3.org/1999/xlink" id="Layer_1" x="0" y="0" version="1.1" viewBox="0 0 1000 1000" style="enable-background:new 0 0 1000 1000" xml:space="preserve"><style type="text/css">.st0{opacity:.41}.st1{stroke-width:8;stroke-linecap:round;stroke-linejoin:round}.st1,.st2,.st3,.st4{stroke:#000;stroke-miterlimit:10}.st3,.st4{fill:#cb0000;stroke:#cb0000;stroke-width:8;stroke-linecap:round;stroke-linejoin:round}.st4{fill:none;stroke:#340600}.st5{fill:#bfbfbf}.st6{fill:#fff}.st7{fill:none;stroke:#340600;stroke-width:6;stroke-linecap:round;stroke-linejoin:round;stroke-miterlimit:10}.st8{fill:#606060}.st9{fill:#1d4928}.st10,.st11{fill:#c4c4c4}.st11{opacity:.77;enable-background:new}.st12{fill:#47a942}.st13{fill:#81c347}.st14{fill:#cadb2a}.st15{fill:#26863f}.st16{fill:#cc0}.st17{fill:#245b34}.st18{opacity:.41;stroke:#000;stroke-miterlimit:10}.st19{fill:#ff9e03}.st20,.st21{fill:none;stroke:#340600;stroke-linejoin:round;stroke-miterlimit:10}.st20{stroke-width:10;stroke-linecap:round}.st21{stroke-width:3}.st22{fill:#06a0ff}.st23{opacity:.27;enable-background:new}.st23,.st24{fill:#06a0ff}.st24,.st25{enable-background:new}.st24{opacity:.38}.st25{opacity:.58;fill:none;stroke:#340600;stroke-width:8;stroke-linecap:round;stroke-linejoin:round;stroke-miterlimit:10}</style><g id="XMLID_226_" class="st0"><line id="XMLID_225_" x1="153.6" x2="321.2" y1="532" y2="532" class="st1"/><path id="XMLID_224_" d="M242.4,552.4h-10.2c-2.4,0-4.3-1.9-4.3-4.3v-30.7c0-2.4,1.9-4.3,4.3-4.3h10.2 c2.4,0,4.3,1.9,4.3,4.3v30.7C246.7,550.5,244.7,552.4,242.4,552.4z" class="st1"/><line id="XMLID_223_" x1="340.2" x2="350.8" y1="708.5" y2="737.7" class="st1"/><polygon id="XMLID_222_" points="329.7 640.8 311 647.7 230.6 427 259.8 416.4 312.2 560.4" class="st1"/><rect id="XMLID_221_" width="13.3" height="35.4" x="326.9" y="672.5" class="st1" transform="matrix(0.9397 -0.342 0.342 0.9397 -215.9327 155.6913)"/><circle id="XMLID_220_" cx="326.2" cy="657.1" r="19.9" class="st1"/><polygon id="XMLID_219_" points="145.1 640.8 163.9 647.7 244.2 427 215.1 416.4 162.6 560.4" class="st1"/><rect id="XMLID_218_" width="35.4" height="13.3" x="123.6" y="683.6" class="st1" transform="matrix(0.342 -0.9397 0.9397 0.342 -555.6434 586.8982)"/><line id="XMLID_217_" x1="134.6" x2="124" y1="708.5" y2="737.7" class="st1"/><circle id="XMLID_216_" cx="148.7" cy="657.1" r="19.9" class="st1"/><path id="XMLID_26_" d="M252.9,478.2c-10.3,0-20.7,0-31,0c-5,0-9.8-3.8-11-8.8c-5.5-23.2-9.3-46.7-8.9-69.9 c0.2-5.9,5.9-11.1,11.8-11.1c15.8,0,31.6,0,47.4,0c5.9,0,11.6,5.2,11.8,11.1c0.4,23.2-3.4,46.7-8.9,69.9 C262.7,474.4,257.9,478.2,252.9,478.2z" class="st1"/><rect id="XMLID_10_" width="35.4" height="78.6" x="219.3" y="294.3" class="st1"/><rect id="XMLID_4_" width="18.8" height="15.5" x="227.7" y="372.9" class="st1"/></g><g id="XMLID_212_" class="st0"><path id="XMLID_211_" d="M596.9,403.4c-54.2,0-132.1,0-186.3,0c-14.5,0-27.3,9.5-31.2,23.4c-4.9,17.5-4.9,35.7,0,53.1 c3.9,13.9,16.7,23.4,31.2,23.4h186.3c8.2,0,14.9-6.3,15.4-14.4c1.6-23.7,1.6-47.5,0-71.2C611.8,409.7,605,403.4,596.9,403.4z" class="st2"/><path id="XMLID_210_" d="M479,484.8c-4-20.8-4-42.1,0-62.9c73.7,0,173.6,0,247.4,0c0,14.4-3.2,37.9-11.8,54.3 c-2.8,5.3-8.2,8.6-14.2,8.6H479z" class="st2"/><rect id="XMLID_209_" width="17.9" height="18.7" x="613.9" y="476.3" class="st2"/></g><rect id="XMLID_206_" width="17.9" height="18.7" x="613.9" y="417" class="st3"/><g id="XMLID_20_"><line id="XMLID_25_" x1="143.6" x2="311.2" y1="527" y2="527" class="st4"/><path id="XMLID_151_" d="M232.4,547.4h-10.2c-2.4,0-4.3-1.9-4.3-4.3v-30.7c0-2.4,1.9-4.3,4.3-4.3h10.2 c2.4,0,4.3,1.9,4.3,4.3v30.7C236.7,545.5,234.7,547.4,232.4,547.4z" class="st5"/><path id="XMLID_245_" d="M219.7,508.8c-1.1,0.8-1.9,2.1-1.9,3.6v30.7c0,1.5,0.8,2.8,1.9,3.6c3.2-2.9,5.6-10.3,5.6-18.9 C225.3,519.1,223,511.7,219.7,508.8z" class="st6"/><path id="XMLID_23_" d="M232.4,547.4h-10.2c-2.4,0-4.3-1.9-4.3-4.3v-30.7c0-2.4,1.9-4.3,4.3-4.3h10.2 c2.4,0,4.3,1.9,4.3,4.3v30.7C236.7,545.5,234.7,547.4,232.4,547.4z" class="st7"/><polygon id="XMLID_9_" points="319.7 635.8 301 642.7 220.6 422 249.8 411.4 302.2 555.4" class="st6"/><polygon id="XMLID_237_" points="302.2 555.4 249.8 411.4 241.8 414.3 293.2 555.4 310.7 635.8 299.9 639.8 301 642.7 319.7 635.8" class="st5"/><path id="XMLID_231_" d="M250.8,410.4L221.6,421l22.6,62.2c10-0.2,19-7.3,21.4-17.2c0.7-3.1,1.4-6.1,2.1-9.1 L250.8,410.4z" class="st5"/><line id="XMLID_11_" x1="330.2" x2="340.8" y1="703.5" y2="732.7" class="st4"/><rect id="XMLID_68_" width="13.3" height="35.4" x="316.9" y="667.5" class="st5" transform="matrix(0.9397 -0.342 0.342 0.9397 -214.8257 151.9698)"/><polygon id="XMLID_14_" points="319.7 635.8 301 642.7 220.6 422 249.8 411.4 302.2 555.4" class="st4"/><rect id="XMLID_12_" width="13.3" height="35.4" x="316.9" y="667.5" class="st4" transform="matrix(0.9397 -0.342 0.342 0.9397 -214.8257 151.9698)"/><circle id="XMLID_62_" cx="316.2" cy="652.1" r="19.9" class="st6"/><path id="XMLID_233_" d="M321.3,643.9c-10.3,3.8-15.7,15.2-11.9,25.6c0.2,0.6,0.4,1.1,0.7,1.6 c4.1,1.3,8.6,1.3,12.9-0.2c10.3-3.8,15.7-15.2,11.9-25.6c-0.2-0.6-0.4-1.1-0.7-1.6C330.2,642.3,325.7,642.3,321.3,643.9z" class="st5"/><circle id="XMLID_13_" cx="316.2" cy="652.1" r="19.9" class="st4"/><polygon id="XMLID_8_" points="135.1 635.8 153.9 642.7 234.2 422 205.1 411.4 152.6 555.4" class="st6"/><polygon id="XMLID_228_" points="135.1 635.8 153.9 642.7 234.2 422 205.1 411.4 152.6 555.4" class="st6"/><polygon id="XMLID_232_" points="205.1 411.4 204 414.3 225.2 422 145.9 639.8 153.9 642.7 234.2 422" class="st5"/><path id="XMLID_230_" d="M207.1,410.4l-16.9,46.5c0.6,3,1.3,6,2.1,9.1c2.4,9.8,11.4,16.9,21.4,17.1l22.6-62.2 L207.1,410.4z" class="st5"/><polygon id="XMLID_18_" points="135.1 635.8 153.9 642.7 234.2 422 205.1 411.4 152.6 555.4" class="st4"/><rect id="XMLID_153_" width="35.4" height="13.3" x="113.6" y="678.6" class="st5" transform="matrix(0.342 -0.9397 0.9397 0.342 -557.5248 574.2113)"/><rect id="XMLID_16_" width="35.4" height="13.3" x="113.6" y="678.6" class="st4" transform="matrix(0.342 -0.9397 0.9397 0.342 -557.5248 574.2113)"/><line id="XMLID_15_" x1="124.6" x2="114" y1="703.5" y2="732.7" class="st4"/><ellipse id="XMLID_152_" cx="138.7" cy="652.1" class="st6" rx="19.9" ry="19.9" transform="matrix(6.652059e-02 -0.9978 0.9978 6.652059e-02 -521.2165 747.0906)"/><ellipse id="XMLID_227_" cx="138.7" cy="652.1" class="st6" rx="19.9" ry="19.9" transform="matrix(6.652059e-02 -0.9978 0.9978 6.652059e-02 -521.2165 747.0906)"/><path id="XMLID_235_" d="M157.4,658.9c1.9-5.2,1.5-10.6-0.7-15.2c-10.2-3.3-21.2,2-24.8,12.1 c-1.9,5.2-1.5,10.6,0.7,15.2C142.7,674.3,153.7,669,157.4,658.9z" class="st5"/><ellipse id="XMLID_17_" cx="138.7" cy="652.1" class="st4" rx="19.9" ry="19.9" transform="matrix(6.652059e-02 -0.9978 0.9978 6.652059e-02 -521.2165 747.0906)"/><path id="XMLID_183_" d="M242.9,473.2c-10.3,0-20.7,0-31,0c-5,0-9.8-3.8-11-8.8c-5.5-23.2-9.3-46.7-8.9-69.9 c0.2-5.9,5.9-11.1,11.8-11.1c15.8,0,31.6,0,47.4,0c5.9,0,11.6,5.2,11.8,11.1c0.4,23.2-3.4,46.7-8.9,69.9 C252.7,469.4,247.9,473.2,242.9,473.2z" class="st5"/><path id="XMLID_238_" d="M200.5,464.4c-5.5-23.2-9.3-46.7-8.9-69.9c0.2-5.9,5.9-11.1,11.8-11.1c11.3,0,22.5,0,33.8,0 c2.7,12.4,2.7,25.8-0.7,39.1c-5.1,20.2-11.7,47.8-32.3,47.8C202.4,468.8,201.1,466.7,200.5,464.4z" class="st6"/><path id="XMLID_19_" d="M242.9,473.2c-10.3,0-20.7,0-31,0c-5,0-9.8-3.8-11-8.8c-5.5-23.2-9.3-46.7-8.9-69.9 c0.2-5.9,5.9-11.1,11.8-11.1c15.8,0,31.6,0,47.4,0c5.9,0,11.6,5.2,11.8,11.1c0.4,23.2-3.4,46.7-8.9,69.9 C252.7,469.4,247.9,473.2,242.9,473.2z" class="st4"/><rect id="XMLID_184_" width="35.4" height="78.6" x="209.3" y="289.3" class="st5"/><rect id="XMLID_239_" width="10" height="78.6" x="209.3" y="289.3" class="st5"/><rect id="XMLID_240_" width="12.5" height="78.6" x="232.3" y="289.3" class="st5"/><rect id="XMLID_21_" width="35.4" height="78.6" x="209.3" y="289.3" class="st4"/><rect id="XMLID_199_" width="18.8" height="15.5" x="217.7" y="367.9" class="st8"/><rect id="XMLID_22_" width="18.8" height="15.5" x="217.7" y="367.9" class="st4"/><line id="XMLID_24_" x1="220.6" x2="220.6" y1="303.3" y2="348.7" class="st7"/><circle id="XMLID_241_" cx="228.9" cy="428" r="10.5" class="st8"/><circle id="XMLID_185_" cx="228.9" cy="428" r="10.5" class="st4"/></g><g id="XMLID_1_"><path id="XMLID_190_" d="M591.9,391.4c-54.2,0-132.1,0-186.3,0c-14.5,0-27.3,9.5-31.2,23.4c-4.9,17.5-4.9,35.7,0,53.1 c3.9,13.9,16.7,23.4,31.2,23.4h186.3c8.2,0,14.9-6.3,15.4-14.4c1.6-23.7,1.6-47.5,0-71.2C606.8,397.7,600,391.4,591.9,391.4z" class="st9"/><path id="XMLID_34_" d="M591.9,391.4c-54.2,0-132.1,0-186.3,0c-14.5,0-27.3,9.5-31.2,23.4c-4.9,17.5-4.9,35.7,0,53.1 c3.9,13.9,16.7,23.4,31.2,23.4h186.3c8.2,0,14.9-6.3,15.4-14.4c1.6-23.7,1.6-47.5,0-71.2C606.8,397.7,600,391.4,591.9,391.4z" class="st4"/><path id="XMLID_29_" d="M591.9,391.4c-54.2,0-132.1,0-186.3,0c-14.5,0-27.3,9.5-31.2,23.4c-4.9,17.5-4.9,35.7,0,53.1 c3.9,13.9,16.7,23.4,31.2,23.4h186.3c8.2,0,14.9-6.3,15.4-14.4c1.6-23.7,1.6-47.5,0-71.2C606.8,397.7,600,391.4,591.9,391.4z" class="st4"/><path id="XMLID_189_" d="M474,472.8c-4-20.8-4-42.1,0-62.9c73.7,0,173.6,0,247.4,0c0,14.4-3.2,37.9-11.8,54.3 c-2.8,5.3-8.2,8.6-14.2,8.6H474z" class="st10"/><path id="XMLID_247_" d="M714.9,409.9c-1,14.1-4.4,32.6-11.5,46.3c-2.8,5.3-8.2,8.6-14.2,8.6H472.6 c0.4,2.7,0.8,5.4,1.3,8.1h221.4c6,0,11.4-3.3,14.2-8.6c8.6-16.4,11.8-39.9,11.8-54.3C719.2,409.9,717.1,409.9,714.9,409.9z" class="st11"/><path id="XMLID_35_" d="M474,472.8c-4-20.8-4-42.1,0-62.9c73.7,0,173.6,0,247.4,0c0,14.4-3.2,37.9-11.8,54.3 c-2.8,5.3-8.2,8.6-14.2,8.6H474z" class="st4"/><path id="XMLID_40_" d="M720.5,423.7c0.5-5,0.8-9.8,0.8-13.8c-73.7,0-173.6,0-247.4,0c-0.9,4.6-1.5,9.2-2,13.8 C547.4,423.7,644.5,423.7,720.5,423.7z" class="st6"/><path id="XMLID_192_" d="M720.5,423.7c0.5-5,0.8-9.8,0.8-13.8c-73.7,0-173.6,0-247.4,0c-0.9,4.6-1.5,9.2-2,13.8 C547.4,423.7,644.5,423.7,720.5,423.7z" class="st4"/><g id="XMLID_41_"><g id="XMLID_58_"><line id="XMLID_59_" x1="481.3" x2="467.4" y1="425.7" y2="472.8" class="st4"/></g><g id="XMLID_56_"><line id="XMLID_57_" x1="507.5" x2="493.6" y1="425.7" y2="472.8" class="st4"/></g><g id="XMLID_54_"><line id="XMLID_55_" x1="533.6" x2="519.7" y1="425.7" y2="472.8" class="st4"/></g><g id="XMLID_52_"><line id="XMLID_53_" x1="559.8" x2="545.9" y1="425.7" y2="472.8" class="st4"/></g><g id="XMLID_50_"><line id="XMLID_51_" x1="586" x2="572.1" y1="425.7" y2="472.8" class="st4"/></g><g id="XMLID_47_"><line id="XMLID_48_" x1="612.1" x2="598.2" y1="425.7" y2="472.8" class="st4"/></g><g id="XMLID_45_"><line id="XMLID_46_" x1="638.3" x2="624.4" y1="425.7" y2="472.8" class="st4"/></g><g id="XMLID_43_"><line id="XMLID_44_" x1="664.5" x2="650.6" y1="425.7" y2="472.8" class="st4"/></g><g id="XMLID_39_"><line id="XMLID_42_" x1="690.6" x2="676.7" y1="425.7" y2="472.8" class="st4"/></g></g><g id="XMLID_37_"><path id="XMLID_191_" d="M608.3,425.7c-0.2-6.6-0.5-13.3-1-19.9c-0.5-8.1-7.3-14.4-15.4-14.4 c-54.2,0-132.1,0-186.3,0c-14.5,0-27.3,9.5-31.2,23.4c-1,3.6-1.8,7.2-2.4,10.9H608.3z" class="st12"/><path id="XMLID_243_" d="M409,405.8c54.2,0,132.1,0,186.3,0c5,0,9.4,2.4,12.3,6c-0.1-1.7-0.2-3.4-0.3-5.1 c-0.5-8.1-7.3-14.4-15.4-14.4c-54.2,0-132.1,0-186.3,0c-14.5,0-27.3,9.5-31.2,23.4c-1,3.6-1.8,7.2-2.4,10.9h6.7 C383.3,414.2,395.4,405.8,409,405.8z" class="st13"/><path id="XMLID_250_" d="M607.3,406.8c-0.5-8.1-7.3-14.4-15.4-14.4c-54.2,0-132.1,0-186.3,0 c-14.5,0-27.3,9.5-31.2,23.4c-1,3.6-1.8,7.2-2.4,10.9h0.2c0.3-1.2,0.6-2.4,0.9-3.6c3.9-13.9,16.7-23.4,31.2-23.4 c54.2,0,132.1,0,186.3,0c6.4,0,11.9,3.8,14.2,9.4c1,0.8,2,1.7,2.8,2.8C607.5,410.1,607.4,408.5,607.3,406.8z" class="st14"/><path id="XMLID_36_" d="M608.3,425.7c-0.2-6.6-0.5-13.3-1-19.9c-0.5-8.1-7.3-14.4-15.4-14.4c-54.2,0-132.1,0-186.3,0 c-14.5,0-27.3,9.5-31.2,23.4c-1,3.6-1.8,7.2-2.4,10.9H608.3z" class="st4"/><path id="XMLID_193_" d="M607.3,477c0.5-7.2,0.8-14.5,1-21.7l-5.4-3.4l-14.9,9.5l-14.9-9.5l-14.9,9.5l-14.9-9.5 l-14.9,9.5l-14.9-9.5l-14.9,9.5l-14.9-9.5l-14.9,9.5l-14.9-9.5l-14.9,9.5l-14.9-9.5l-14.9,9.5l-14.9-9.5l-14.9,9.5l-7.7-4.9 c0.6,3.9,1.4,7.7,2.5,11.5c3.9,13.9,16.7,23.4,31.2,23.4h186.3C600,491.3,606.8,485,607.3,477z" class="st12"/><path id="XMLID_244_" d="M607.5,454.7c-0.2,3.8-0.4,7.6-0.6,11.4c-0.5,8.1-7.3,14.4-15.4,14.4H405.1 c-14.2,0-26.8-9.2-31-22.6l-2.3-1.5c0.6,3.9,1.4,7.7,2.5,11.5c3.9,13.9,16.7,23.4,31.2,23.4h186.3c8.2,0,14.9-6.3,15.4-14.4 c0.5-7.2,0.8-14.5,1-21.7L607.5,454.7z" class="st15"/><path id="XMLID_38_" d="M607.3,477c0.5-7.2,0.8-14.5,1-21.7l-5.4-3.4l-14.9,9.5l-14.9-9.5l-14.9,9.5l-14.9-9.5 l-14.9,9.5l-14.9-9.5l-14.9,9.5l-14.9-9.5l-14.9,9.5l-14.9-9.5l-14.9,9.5l-14.9-9.5l-14.9,9.5l-14.9-9.5l-14.9,9.5l-7.7-4.9 c0.6,3.9,1.4,7.7,2.5,11.5c3.9,13.9,16.7,23.4,31.2,23.4h186.3C600,491.3,606.8,485,607.3,477z" class="st4"/></g><circle id="XMLID_194_" cx="479.9" cy="442.2" r="25.8" class="st16"/><circle id="XMLID_33_" cx="479.9" cy="442.2" r="25.8" class="st4"/><rect id="XMLID_195_" width="17.9" height="18.7" x="608.9" y="464.3" class="st17"/><rect id="XMLID_196_" width="17.9" height="18.7" x="608.9" y="464.3" class="st4"/><rect id="XMLID_198_" width="17.9" height="18.7" x="608.9" y="406" class="st17"/><rect id="XMLID_197_" width="17.9" height="18.7" x="608.9" y="406" class="st4"/><line id="XMLID_200_" x1="455.1" x2="495.8" y1="447.7" y2="422.7" class="st4"/><line id="XMLID_201_" x1="465" x2="505.6" y1="461.7" y2="436.7" class="st4"/></g><g><path id="XMLID_205_" d="M893.2,354.8H392.8c-9.2,0-16.7-7.5-16.7-16.7v-51.5c0-9.2,7.5-16.7,16.7-16.7h500.4 c9.2,0,16.7,7.5,16.7,16.7v51.5C909.9,347.4,902.4,354.8,893.2,354.8z" class="st18"/><path id="XMLID_188_" d="M880.8,342H380.4c-9.2,0-16.7-7.5-16.7-16.7v-51.5c0-9.2,7.5-16.7,16.7-16.7h500.4 c9.2,0,16.7,7.5,16.7,16.7v51.5C897.5,334.5,890,342,880.8,342z" class="st19"/><path id="XMLID_27_" d="M880.8,342H380.4c-9.2,0-16.7-7.5-16.7-16.7v-51.5c0-9.2,7.5-16.7,16.7-16.7h500.4 c9.2,0,16.7,7.5,16.7,16.7v51.5C897.5,334.5,890,342,880.8,342z" class="st4"/><line id="XMLID_3_" x1="391.9" x2="863.3" y1="300.7" y2="300.7" class="st20"/><g id="XMLID_2_"><g id="XMLID_122_"><line id="XMLID_127_" x1="862.5" x2="862.5" y1="257.1" y2="274.2" class="st21"/></g><g id="XMLID_116_"><line id="XMLID_121_" x1="816.1" x2="816.1" y1="257.1" y2="274.2" class="st21"/><line id="XMLID_120_" x1="828.3" x2="828.3" y1="257.1" y2="266" class="st21"/><line id="XMLID_119_" x1="850.7" x2="850.7" y1="257.1" y2="266" class="st21"/><line id="XMLID_118_" x1="839.5" x2="839.5" y1="257.1" y2="269.5" class="st21"/></g><g id="XMLID_110_"><line id="XMLID_115_" x1="769.8" x2="769.8" y1="257.1" y2="274.2" class="st21"/><line id="XMLID_114_" x1="782" x2="782" y1="257.1" y2="266" class="st21"/><line id="XMLID_113_" x1="804.3" x2="804.3" y1="257.1" y2="266" class="st21"/><line id="XMLID_112_" x1="793.1" x2="793.1" y1="257.1" y2="269.5" class="st21"/></g><g id="XMLID_104_"><line id="XMLID_109_" x1="723.4" x2="723.4" y1="257.1" y2="274.2" class="st21"/><line id="XMLID_108_" x1="735.6" x2="735.6" y1="257.1" y2="266" class="st21"/><line id="XMLID_107_" x1="757.9" x2="757.9" y1="257.1" y2="266" class="st21"/><line id="XMLID_106_" x1="746.7" x2="746.7" y1="257.1" y2="269.5" class="st21"/></g><g id="XMLID_97_"><line id="XMLID_103_" x1="677" x2="677" y1="257.1" y2="274.2" class="st21"/><line id="XMLID_102_" x1="689.2" x2="689.2" y1="257.1" y2="266" class="st21"/><line id="XMLID_101_" x1="711.5" x2="711.5" y1="257.1" y2="266" class="st21"/><line id="XMLID_100_" x1="700.3" x2="700.3" y1="257.1" y2="269.5" class="st21"/></g><g id="XMLID_91_"><line id="XMLID_96_" x1="630.6" x2="630.6" y1="257.1" y2="274.2" class="st21"/><line id="XMLID_95_" x1="642.8" x2="642.8" y1="257.1" y2="266" class="st21"/><line id="XMLID_94_" x1="665.1" x2="665.1" y1="257.1" y2="266" class="st21"/><line id="XMLID_93_" x1="654" x2="654" y1="257.1" y2="269.5" class="st21"/></g><g id="XMLID_85_"><line id="XMLID_90_" x1="584.2" x2="584.2" y1="257.1" y2="274.2" class="st21"/><line id="XMLID_89_" x1="596.4" x2="596.4" y1="257.1" y2="266" class="st21"/><line id="XMLID_88_" x1="618.7" x2="618.7" y1="257.1" y2="266" class="st21"/><line id="XMLID_87_" x1="607.6" x2="607.6" y1="257.1" y2="269.5" class="st21"/></g><g id="XMLID_79_"><line id="XMLID_84_" x1="537.8" x2="537.8" y1="257.1" y2="274.2" class="st21"/><line id="XMLID_83_" x1="550" x2="550" y1="257.1" y2="266" class="st21"/><line id="XMLID_82_" x1="572.3" x2="572.3" y1="257.1" y2="266" class="st21"/><line id="XMLID_81_" x1="561.2" x2="561.2" y1="257.1" y2="269.5" class="st21"/></g><g id="XMLID_73_"><line id="XMLID_78_" x1="491.4" x2="491.4" y1="257.1" y2="274.2" class="st21"/><line id="XMLID_77_" x1="503.6" x2="503.6" y1="257.1" y2="266" class="st21"/><line id="XMLID_76_" x1="526" x2="526" y1="257.1" y2="266" class="st21"/><line id="XMLID_75_" x1="514.8" x2="514.8" y1="257.1" y2="269.5" class="st21"/></g><g id="XMLID_67_"><line id="XMLID_72_" x1="445" x2="445" y1="257.1" y2="274.2" class="st21"/><line id="XMLID_71_" x1="457.2" x2="457.2" y1="257.1" y2="266" class="st21"/><line id="XMLID_70_" x1="479.6" x2="479.6" y1="257.1" y2="266" class="st21"/><line id="XMLID_69_" x1="468.4" x2="468.4" y1="257.1" y2="269.5" class="st21"/></g><g id="XMLID_61_"><line id="XMLID_66_" x1="398.6" x2="398.6" y1="257.1" y2="274.2" class="st21"/><line id="XMLID_65_" x1="410.8" x2="410.8" y1="257.1" y2="266" class="st21"/><line id="XMLID_64_" x1="433.2" x2="433.2" y1="257.1" y2="266" class="st21"/><line id="XMLID_63_" x1="422" x2="422" y1="257.1" y2="269.5" class="st21"/></g></g></g><g><path id="XMLID_202_" d="M900.5,466.4L548.7,710.6c-4.9,3.3-2.6,11,3.3,11h353.9c2.2,0,4-1.8,4-4V471.4 C909.9,466.6,904.5,463.8,900.5,466.4z M696.4,671.8L860,553.5v118.3H696.4z" class="st18"/><g id="XMLID_28_"><path id="XMLID_155_" d="M889.5,454.4L537.7,698.6c-4.9,3.3-2.6,11,3.3,11h353.9c2.2,0,4-1.8,4-4V459.4 C898.9,454.6,893.5,451.8,889.5,454.4z M685.4,659.8L849,541.5v118.3H685.4z" class="st19"/><path id="XMLID_32_" d="M889.5,454.4L537.7,698.6c-4.9,3.3-2.6,11,3.3,11h353.9c2.2,0,4-1.8,4-4V459.4 C898.9,454.6,893.5,451.8,889.5,454.4z M685.4,659.8L849,541.5v118.3H685.4z" class="st4"/><g id="XMLID_6_"><g id="XMLID_150_"><line id="XMLID_154_" x1="877.8" x2="877.8" y1="709.4" y2="692.9" class="st21"/></g><g id="XMLID_145_"><line id="XMLID_149_" x1="832.8" x2="832.8" y1="709.4" y2="692.9" class="st21"/><line id="XMLID_148_" x1="844.6" x2="844.6" y1="709.4" y2="700.8" class="st21"/><line id="XMLID_147_" x1="866.3" x2="866.3" y1="709.4" y2="700.8" class="st21"/><line id="XMLID_146_" x1="855.4" x2="855.4" y1="709.4" y2="697.4" class="st21"/></g><g id="XMLID_140_"><line id="XMLID_144_" x1="787.8" x2="787.8" y1="709.4" y2="692.9" class="st21"/><line id="XMLID_143_" x1="799.6" x2="799.6" y1="709.4" y2="700.8" class="st21"/><line id="XMLID_142_" x1="821.3" x2="821.3" y1="709.4" y2="700.8" class="st21"/><line id="XMLID_141_" x1="810.4" x2="810.4" y1="709.4" y2="697.4" class="st21"/></g><g id="XMLID_135_"><line id="XMLID_139_" x1="742.8" x2="742.8" y1="709.4" y2="692.9" class="st21"/><line id="XMLID_138_" x1="754.6" x2="754.6" y1="709.4" y2="700.8" class="st21"/><line id="XMLID_137_" x1="776.3" x2="776.3" y1="709.4" y2="700.8" class="st21"/><line id="XMLID_136_" x1="765.4" x2="765.4" y1="709.4" y2="697.4" class="st21"/></g><g id="XMLID_130_"><line id="XMLID_134_" x1="697.8" x2="697.8" y1="709.4" y2="692.9" class="st21"/><line id="XMLID_133_" x1="709.6" x2="709.6" y1="709.4" y2="700.8" class="st21"/><line id="XMLID_132_" x1="731.3" x2="731.3" y1="709.4" y2="700.8" class="st21"/><line id="XMLID_131_" x1="720.4" x2="720.4" y1="709.4" y2="697.4" class="st21"/></g><g id="XMLID_124_"><line id="XMLID_129_" x1="652.8" x2="652.8" y1="709.4" y2="692.9" class="st21"/><line id="XMLID_128_" x1="664.6" x2="664.6" y1="709.4" y2="700.8" class="st21"/><line id="XMLID_126_" x1="686.3" x2="686.3" y1="709.4" y2="700.8" class="st21"/><line id="XMLID_125_" x1="675.4" x2="675.4" y1="709.4" y2="697.4" class="st21"/></g><g id="XMLID_99_"><line id="XMLID_123_" x1="607.8" x2="607.8" y1="709.4" y2="692.9" class="st21"/><line id="XMLID_117_" x1="619.6" x2="619.6" y1="709.4" y2="700.8" class="st21"/><line id="XMLID_111_" x1="641.3" x2="641.3" y1="709.4" y2="700.8" class="st21"/><line id="XMLID_105_" x1="630.4" x2="630.4" y1="709.4" y2="697.4" class="st21"/></g><g id="XMLID_74_"><line id="XMLID_98_" x1="562.8" x2="562.8" y1="709.4" y2="692.9" class="st21"/><line id="XMLID_92_" x1="574.6" x2="574.6" y1="709.4" y2="700.8" class="st21"/><line id="XMLID_86_" x1="596.3" x2="596.3" y1="709.4" y2="700.8" class="st21"/><line id="XMLID_80_" x1="585.4" x2="585.4" y1="709.4" y2="697.4" class="st21"/></g></g><g id="XMLID_5_"><g id="XMLID_177_"><line id="XMLID_181_" x1="898" x2="881.4" y1="509.2" y2="509.2" class="st21"/><line id="XMLID_180_" x1="898" x2="889.3" y1="497.3" y2="497.3" class="st21"/><line id="XMLID_179_" x1="898" x2="889.3" y1="475.7" y2="475.7" class="st21"/><line id="XMLID_178_" x1="898" x2="885.9" y1="486.5" y2="486.5" class="st21"/></g><g id="XMLID_172_"><line id="XMLID_176_" x1="898" x2="881.4" y1="554.2" y2="554.2" class="st21"/><line id="XMLID_175_" x1="898" x2="889.3" y1="542.3" y2="542.3" class="st21"/><line id="XMLID_174_" x1="898" x2="889.3" y1="520.7" y2="520.7" class="st21"/><line id="XMLID_173_" x1="898" x2="885.9" y1="531.5" y2="531.5" class="st21"/></g><g id="XMLID_167_"><line id="XMLID_171_" x1="898" x2="881.4" y1="599.2" y2="599.2" class="st21"/><line id="XMLID_170_" x1="898" x2="889.3" y1="587.3" y2="587.3" class="st21"/><line id="XMLID_169_" x1="898" x2="889.3" y1="565.7" y2="565.7" class="st21"/><line id="XMLID_168_" x1="898" x2="885.9" y1="576.5" y2="576.5" class="st21"/></g><g id="XMLID_162_"><line id="XMLID_166_" x1="898" x2="881.4" y1="644.2" y2="644.2" class="st21"/><line id="XMLID_165_" x1="898" x2="889.3" y1="632.3" y2="632.3" class="st21"/><line id="XMLID_164_" x1="898" x2="889.3" y1="610.7" y2="610.7" class="st21"/><line id="XMLID_163_" x1="898" x2="885.9" y1="621.5" y2="621.5" class="st21"/></g><g id="XMLID_157_"><line id="XMLID_161_" x1="898" x2="881.4" y1="689.2" y2="689.2" class="st21"/><line id="XMLID_160_" x1="898" x2="889.3" y1="677.3" y2="677.3" class="st21"/><line id="XMLID_159_" x1="898" x2="889.3" y1="655.7" y2="655.7" class="st21"/><line id="XMLID_158_" x1="898" x2="885.9" y1="666.5" y2="666.5" class="st21"/></g></g></g></g><g><g id="XMLID_215_" class="st0"><path id="XMLID_214_" d="M535.4,636.4H394.3c-5.9,0-10.7-4.8-10.7-10.7v-55.6c0-5.9,4.8-10.7,10.7-10.7h141.2 c5.9,0,10.7,4.8,10.7,10.7v55.6C546.1,631.6,541.3,636.4,535.4,636.4z" class="st2"/><path id="XMLID_213_" d="M503.8,642.7h-94.7c-3,0-5.5-2.5-5.5-5.5v-79.7c0-3,2.5-5.5,5.5-5.5h94.7 c3,0,5.5,2.5,5.5,5.5v79.7C509.3,640.2,506.9,642.7,503.8,642.7z" class="st2"/></g><path id="XMLID_186_" d="M526.4,626.4H385.3c-5.9,0-10.7-4.8-10.7-10.7v-55.6c0-5.9,4.8-10.7,10.7-10.7h141.2 c5.9,0,10.7,4.8,10.7,10.7v55.6C537.1,621.6,532.3,626.4,526.4,626.4z" class="st6"/><path id="XMLID_234_" d="M499.6,626.4h-104c-5.9,0-10.7-4.8-10.7-10.7v-55.6c0-5.9,4.8-10.7,10.7-10.7h104 c5.9,0,10.7,4.8,10.7,10.7v55.6C510.3,621.6,505.5,626.4,499.6,626.4z" class="st5"/><path id="XMLID_49_" d="M526.4,626.4H385.3c-5.9,0-10.7-4.8-10.7-10.7v-55.6c0-5.9,4.8-10.7,10.7-10.7h141.2 c5.9,0,10.7,4.8,10.7,10.7v55.6C537.1,621.6,532.3,626.4,526.4,626.4z" class="st4"/><path id="XMLID_187_" d="M494.8,632.7h-94.7c-3,0-5.5-2.5-5.5-5.5v-79.7c0-3,2.5-5.5,5.5-5.5h94.7 c3,0,5.5,2.5,5.5,5.5v79.7C500.3,630.2,497.9,632.7,494.8,632.7z" class="st22"/><path id="XMLID_229_" d="M494.8,632.7h-94.7c-3,0-5.5-2.5-5.5-5.5v-1.3c0-3,2.5-5.5,5.5-5.5h94.7c3,0,5.5,2.5,5.5,5.5 v1.3C500.3,630.2,497.9,632.7,494.8,632.7z" class="st23"/><path id="XMLID_236_" d="M494.8,555.6h-94.7c-3,0-5.5-2.5-5.5-5.5v-1.3c0-3,2.5-5.5,5.5-5.5h94.7c3,0,5.5,2.5,5.5,5.5 v1.3C500.3,553.1,497.9,555.6,494.8,555.6z" class="st24"/><path id="XMLID_60_" d="M494.8,632.7h-94.7c-3,0-5.5-2.5-5.5-5.5v-79.7c0-3,2.5-5.5,5.5-5.5h94.7c3,0,5.5,2.5,5.5,5.5 v79.7C500.3,630.2,497.9,632.7,494.8,632.7z" class="st4"/><line id="XMLID_207_" x1="416" x2="471" y1="570.3" y2="570.3" class="st25"/><line id="XMLID_208_" x1="416" x2="439" y1="587.9" y2="587.9" class="st25"/></g></svg>